<?xml version="1.0" encoding="utf-8"?>
<!-- Generator: Adobe Illustrator 27.5.0, SVG Export Plug-In . SVG Version: 6.00 Build 0)  -->
<svg version="1.1" xmlns="http://www.w3.org/2000/svg" xmlns:xlink="http://www.w3.org/1999/xlink" x="0px" y="0px"
	 viewBox="0 0 500 500" style="enable-background:new 0 0 500 500;" xml:space="preserve">
<g id="BACKGROUND">
	<radialGradient id="SVGID_1_" cx="250" cy="250" r="303.4585" gradientUnits="userSpaceOnUse">
		<stop  offset="0" style="stop-color:#FFFFFF"/>
		<stop  offset="0.3287" style="stop-color:#FCFCFD"/>
		<stop  offset="0.5871" style="stop-color:#F2F4F6"/>
		<stop  offset="0.8209" style="stop-color:#E1E7E9"/>
		<stop  offset="1" style="stop-color:#CFD8DC"/>
	</radialGradient>
	<rect style="fill:url(#SVGID_1_);" width="500" height="500"/>
</g>
<g id="OBJECTS">
	<g>
		
			<linearGradient id="SVGID_00000047770444656849058640000015430547777151449015_" gradientUnits="userSpaceOnUse" x1="326.5593" y1="172.6169" x2="161.1843" y2="223.9919">
			<stop  offset="0" style="stop-color:#8A4CFF"/>
			<stop  offset="1" style="stop-color:#008AFF"/>
		</linearGradient>
		<path style="fill:url(#SVGID_00000047770444656849058640000015430547777151449015_);" d="M312.699,175.958
			c-4.771-9.541-29.646-10.904-62.699-10.904h0h0c-33.053,0-57.929,1.363-62.699,10.904c-4.272,8.544-14.827,34.025-16.987,39.259
			c22.687-8.733,50.125-13.843,79.686-13.843s56.999,5.111,79.686,13.843C327.526,209.983,316.971,184.502,312.699,175.958z
			 M287.672,199.382c-1.223-5.745-5.06-10.522-10.208-13.026c5.149-2.503,8.985-7.281,10.208-13.026
			c1.223,5.745,5.06,10.522,10.209,13.026C292.732,188.86,288.895,193.637,287.672,199.382z"/>
		
			<linearGradient id="SVGID_00000079471330731737585260000017346934250795894930_" gradientUnits="userSpaceOnUse" x1="363.5127" y1="242.9034" x2="144.6273" y2="144.914">
			<stop  offset="0" style="stop-color:#8A4CFF"/>
			<stop  offset="1" style="stop-color:#008AFF"/>
		</linearGradient>
		<path style="fill:url(#SVGID_00000079471330731737585260000017346934250795894930_);" d="M356.538,204.992
			c4.067-5.934,6.451-13.112,6.451-20.849c0-19.729-15.472-35.842-34.944-36.873c1.421-2.34,2.254-5.077,2.254-8.015
			c0-8.552-6.933-15.485-15.485-15.485c-6.61,0-12.236,4.149-14.459,9.978c-3.559-2.595-7.94-4.131-12.682-4.131
			c-4.538,0-8.745,1.406-12.218,3.801c-5.467-13.557-18.738-23.129-34.252-23.129c-17.226,0-31.696,11.796-35.777,27.75
			c-3.94-5.119-10.125-8.422-17.085-8.422c-11.902,0-21.551,9.649-21.551,21.551c0,0.965,0.07,1.914,0.193,2.845
			c-18.654,0.569-33.603,15.859-33.603,34.651c0,9.239,3.62,17.628,9.511,23.843c-5.451,2.882-9.167,8.606-9.167,15.201
			c0,7.105,4.312,13.203,10.461,15.82c1.776-8.907,4.858-14.138,5.295-14.741c6.923-9.537,20.397-20.255,20.397-20.255
			s12.615-30.686,17.389-40.233c4.773-9.547,29.663-10.91,62.735-10.91h0h0c33.072,0,57.962,1.364,62.735,10.91
			c4.773,9.547,17.389,40.233,17.389,40.233s13.474,10.718,20.397,20.255c0.455,0.627,3.774,6.275,5.505,15.86
			c6.395-4.354,10.595-11.691,10.595-20.01C366.621,216.544,362.642,209.384,356.538,204.992z M143.084,189.898
			c-1.838,0-3.328-1.49-3.328-3.328c0-1.838,1.49-3.328,3.328-3.328c1.838,0,3.328,1.49,3.328,3.328
			C146.412,188.408,144.922,189.898,143.084,189.898z M189.072,159.807c-2.364,0-4.28-1.916-4.28-4.28c0-2.364,1.916-4.28,4.28-4.28
			s4.28,1.916,4.28,4.28C193.352,157.891,191.436,159.807,189.072,159.807z M230.23,138.902c-5.429,0-9.83-4.401-9.83-9.83
			c0-5.429,4.401-9.83,9.83-9.83s9.83,4.401,9.83,9.83C240.06,134.501,235.659,138.902,230.23,138.902z M250.236,151.669
			c-1.838,0-3.328-1.49-3.328-3.328c0-1.838,1.49-3.328,3.328-3.328s3.328,1.49,3.328,3.328
			C253.564,150.179,252.074,151.669,250.236,151.669z M333.643,176.417c-3.99,0-7.225-3.235-7.225-7.225
			c0-3.99,3.235-7.225,7.225-7.225s7.225,3.235,7.225,7.225C340.867,173.182,337.633,176.417,333.643,176.417z M348.48,186.794
			c-1.838,0-3.328-1.49-3.328-3.328c0-1.838,1.49-3.328,3.328-3.328s3.328,1.49,3.328,3.328
			C351.808,185.304,350.318,186.794,348.48,186.794z"/>
		<g>
			<g>
				
					<linearGradient id="SVGID_00000088107730861630456340000003210416145547782067_" gradientUnits="userSpaceOnUse" x1="324.5068" y1="201.3956" x2="353.1452" y2="201.3956">
					<stop  offset="0" style="stop-color:#263238"/>
					<stop  offset="1" style="stop-color:#455A64"/>
				</linearGradient>
				<path style="fill:url(#SVGID_00000088107730861630456340000003210416145547782067_);" d="M325.327,201.457
					c3.465,8.63,6.227,10.515,13.909,10.515c7.682,0,13.909-8.519,13.909-14.326c0-5.807-6.251-7.303-13.909-6.703
					C324.551,192.093,323.14,196.009,325.327,201.457z"/>
				
					<linearGradient id="SVGID_00000174577517108403982210000003514248589145051521_" gradientUnits="userSpaceOnUse" x1="324.403" y1="202.5579" x2="349.0103" y2="202.5579">
					<stop  offset="0" style="stop-color:#455A64"/>
					<stop  offset="1" style="stop-color:#263238"/>
				</linearGradient>
				<path style="opacity:0.5;fill:url(#SVGID_00000174577517108403982210000003514248589145051521_);" d="M339.236,211.972
					c3.758,0,7.165-2.041,9.668-4.804c-12.862,3.737-16.909-3.968-20.683-14.024l0,0c-4.213,1.908-4.309,4.79-2.895,8.313
					C328.792,210.087,331.555,211.972,339.236,211.972z"/>
			</g>
			<g>
				
					<linearGradient id="SVGID_00000031184364918881609150000017784787049937022347_" gradientUnits="userSpaceOnUse" x1="176.8174" y1="201.3956" x2="205.4558" y2="201.3956" gradientTransform="matrix(-1 0 0 1 352.3106 0)">
					<stop  offset="0" style="stop-color:#263238"/>
					<stop  offset="1" style="stop-color:#455A64"/>
				</linearGradient>
				<path style="fill:url(#SVGID_00000031184364918881609150000017784787049937022347_);" d="M174.673,201.457
					c-3.465,8.63-6.227,10.515-13.909,10.515s-13.909-8.519-13.909-14.326c0-5.807,6.251-7.303,13.909-6.703
					C175.449,192.093,176.86,196.009,174.673,201.457z"/>
				
					<linearGradient id="SVGID_00000075162206722527783480000014329319580270084526_" gradientUnits="userSpaceOnUse" x1="176.7136" y1="202.5579" x2="201.3209" y2="202.5579" gradientTransform="matrix(-1 0 0 1 352.3106 0)">
					<stop  offset="0" style="stop-color:#455A64"/>
					<stop  offset="1" style="stop-color:#263238"/>
				</linearGradient>
				<path style="opacity:0.5;fill:url(#SVGID_00000075162206722527783480000014329319580270084526_);" d="M160.764,211.972
					c-3.758,0-7.165-2.041-9.668-4.804c12.863,3.737,16.909-3.968,20.683-14.024l0,0c4.213,1.908,4.309,4.79,2.895,8.313
					C171.208,210.087,168.445,211.972,160.764,211.972z"/>
			</g>
		</g>
		<g>
			<g>
				<path style="fill:#263238;" d="M311.745,291.008c1.029,10.177,3.367,17.287,6.089,17.287c2.84,0,5.263-7.742,6.215-18.633
					C320.221,290.129,316.115,290.582,311.745,291.008z"/>
				
					<linearGradient id="SVGID_00000006688713384787655030000000571043499999187862_" gradientUnits="userSpaceOnUse" x1="335.6143" y1="306.3321" x2="335.6143" y2="277.6989">
					<stop  offset="0" style="stop-color:#455A64"/>
					<stop  offset="1" style="stop-color:#263238"/>
				</linearGradient>
				<path style="fill:url(#SVGID_00000006688713384787655030000000571043499999187862_);" d="M324.049,289.663
					c-0.953,10.891-3.375,18.633-6.215,18.633h29.04c3.228,0,5.918-9.999,6.521-23.258
					C346.906,286.345,337.062,288.077,324.049,289.663z"/>
			</g>
			<g>
				<path style="fill:#263238;" d="M175.951,289.661c0.953,10.891,3.375,18.634,6.216,18.634c2.721,0,5.059-7.11,6.088-17.285
					C183.878,290.583,179.784,290.128,175.951,289.661z"/>
				
					<linearGradient id="SVGID_00000161634051358553860180000007532462016596345998_" gradientUnits="userSpaceOnUse" x1="164.3857" y1="306.3321" x2="164.3857" y2="277.6989">
					<stop  offset="0" style="stop-color:#455A64"/>
					<stop  offset="1" style="stop-color:#263238"/>
				</linearGradient>
				<path style="fill:url(#SVGID_00000161634051358553860180000007532462016596345998_);" d="M175.951,289.661
					c-13.001-1.585-22.858-3.316-29.346-4.623c0.604,13.258,3.293,23.257,6.521,23.257h29.04
					C179.326,308.295,176.903,300.552,175.951,289.661z"/>
			</g>
			<g>
				
					<linearGradient id="SVGID_00000107552755018793967000000017548528755452301478_" gradientUnits="userSpaceOnUse" x1="157.304" y1="296.3722" x2="320.8318" y2="190.1109">
					<stop  offset="0" style="stop-color:#263238"/>
					<stop  offset="1" style="stop-color:#455A64"/>
				</linearGradient>
				<path style="fill:url(#SVGID_00000107552755018793967000000017548528755452301478_);" d="M350.521,228.789
					c-6.923-9.537-20.397-20.255-20.397-20.255s-12.615-30.686-17.389-40.233c-4.773-9.547-29.663-10.91-62.735-10.91h0h0
					c-33.072,0-57.962,1.364-62.735,10.91c-4.773,9.547-17.389,40.233-17.389,40.233s-13.474,10.718-20.397,20.255
					c-0.78,1.074-9.963,16.849-5.175,41.955c0.594,3.117,2.746,9.963,6.616,10.831c13.565,3.043,47.648,9.28,99.08,9.28h0h0
					c51.432,0,85.514-6.238,99.08-9.28c3.87-0.868,6.022-7.714,6.616-10.831C360.484,245.637,351.301,229.863,350.521,228.789z
					 M151.919,269.96c-0.917-3.079-4.514-19.872,6.494-19.872c7.039,0,16.938,4.414,22.717,11.201
					c6.093,7.154,0.022,12.83-15.636,7.727c0,0,5.713,3.643,12.016,4.988c5.034,1.074,10.242,0.815,11.548-2.798
					c0.559,1.239,0.866,2.392,0.866,3.409C189.925,282.119,154.267,277.848,151.919,269.96z M250,201.374
					c-29.562,0-56.999,5.111-79.686,13.843c2.16-5.234,12.715-30.715,16.987-39.259c4.771-9.541,29.646-10.904,62.699-10.904h0h0
					c33.053,0,57.929,1.363,62.699,10.904c4.272,8.544,14.827,34.025,16.987,39.259C306.999,206.485,279.562,201.374,250,201.374z
					 M259.973,228.243c-0.688-3.23-2.845-5.916-5.739-7.323c2.895-1.407,5.052-4.093,5.739-7.323
					c0.688,3.23,2.845,5.916,5.739,7.323C262.818,222.327,260.661,225.013,259.973,228.243z M348.081,269.96
					c-2.348,7.887-38.006,12.159-38.006,4.654c0-1.016,0.308-2.17,0.866-3.409c1.306,3.613,6.513,3.872,11.548,2.798
					c6.304-1.345,12.016-4.988,12.016-4.988c-15.659,5.104-21.729-0.573-15.636-7.727c5.779-6.786,15.678-11.201,22.717-11.201
					C352.595,250.089,348.998,266.882,348.081,269.96z"/>
			</g>
		</g>
		
			<linearGradient id="SVGID_00000137817788848657607470000006688180897526905736_" gradientUnits="userSpaceOnUse" x1="184.7916" y1="213.5964" x2="315.2084" y2="213.5964">
			<stop  offset="0" style="stop-color:#FFFFFF"/>
			<stop  offset="1" style="stop-color:#ECEFF1"/>
		</linearGradient>
		<path style="opacity:0.19;fill:url(#SVGID_00000137817788848657607470000006688180897526905736_);" d="M250,209.375
			c24.602,0,47.242,4.656,65.208,12.465c-16.879-10.206-39.868-16.488-65.208-16.488s-48.329,6.282-65.208,16.488
			C202.758,214.031,225.398,209.375,250,209.375z"/>
		
			<linearGradient id="SVGID_00000036940624641571708120000003688267719760829854_" gradientUnits="userSpaceOnUse" x1="203.852" y1="273.4794" x2="296.1483" y2="273.4794">
			<stop  offset="0" style="stop-color:#FFFFFF"/>
			<stop  offset="1" style="stop-color:#ECEFF1"/>
		</linearGradient>
		<path style="opacity:0.19;fill:url(#SVGID_00000036940624641571708120000003688267719760829854_);" d="M292.381,263.899
			c-12.26,0.845-26.422,1.409-42.381,1.409c-15.958,0-30.12-0.565-42.381-1.409c-2.51-0.173-4.395,1.967-3.571,4.049
			c3.927,9.925,6.882,10.296,16.116,12.298c11.744,2.546,20.314,2.824,29.836,2.824c9.522,0,18.092-0.278,29.836-2.824
			c9.235-2.002,12.189-2.373,16.116-12.298C296.776,265.866,294.891,263.726,292.381,263.899z M286.862,273.373
			c-0.531,0.142-1.301,0.379-2.3,0.626c-0.999,0.247-2.209,0.565-3.619,0.862c-1.404,0.317-3.001,0.645-4.758,0.945
			c-1.753,0.321-3.67,0.608-5.707,0.862c-2.038,0.245-4.195,0.49-6.437,0.633c-2.24,0.149-4.558,0.302-6.913,0.346
			c-2.351,0.058-4.752,0.088-7.124,0.099c-2.392-0.013-4.775-0.041-7.131-0.1c-2.355-0.047-4.673-0.198-6.912-0.347
			c-2.242-0.142-4.398-0.389-6.436-0.633c-2.037-0.253-3.953-0.542-5.707-0.861c-1.758-0.3-3.354-0.628-4.758-0.944
			c-1.409-0.296-2.622-0.615-3.621-0.861c-0.999-0.246-1.767-0.483-2.298-0.625c-0.529-0.148-0.811-0.227-0.811-0.227
			s1.175,0.165,3.231,0.455c1.026,0.135,2.271,0.3,3.7,0.488c0.713,0.095,1.474,0.186,2.278,0.271
			c0.802,0.09,1.643,0.195,2.525,0.279c1.759,0.19,3.672,0.337,5.689,0.5c2.022,0.14,4.154,0.257,6.363,0.348
			c2.209,0.094,4.495,0.127,6.821,0.165c2.325,0.034,4.698,0.038,7.062,0.027c2.384,0.009,4.74,0.007,7.069-0.028
			c2.326-0.042,4.612-0.072,6.821-0.167c2.209-0.09,4.341-0.21,6.363-0.349c2.018-0.162,3.93-0.311,5.689-0.5
			c0.882-0.083,1.722-0.187,2.525-0.279c0.804-0.084,1.565-0.175,2.278-0.27c1.429-0.188,2.676-0.352,3.702-0.488
			c2.055-0.288,3.229-0.453,3.229-0.453S287.39,273.225,286.862,273.373z M286.862,268.565c-0.531,0.142-1.301,0.379-2.3,0.626
			c-0.999,0.247-2.209,0.565-3.619,0.862c-1.404,0.317-3.001,0.645-4.758,0.945c-1.753,0.321-3.67,0.608-5.707,0.862
			c-2.038,0.245-4.195,0.49-6.437,0.633c-2.24,0.149-4.558,0.302-6.913,0.346c-2.351,0.058-4.752,0.088-7.124,0.099
			c-2.392-0.013-4.775-0.041-7.131-0.1c-2.355-0.047-4.673-0.198-6.912-0.347c-2.242-0.142-4.398-0.39-6.436-0.633
			c-2.037-0.253-3.953-0.542-5.707-0.861c-1.758-0.299-3.354-0.628-4.758-0.944c-1.409-0.296-2.622-0.615-3.621-0.861
			c-0.999-0.246-1.767-0.483-2.298-0.625c-0.529-0.148-0.811-0.227-0.811-0.227s1.175,0.165,3.231,0.455
			c1.026,0.135,2.271,0.3,3.7,0.488c0.713,0.095,1.474,0.186,2.278,0.271c0.802,0.09,1.643,0.195,2.525,0.279
			c1.759,0.19,3.672,0.337,5.689,0.5c2.022,0.14,4.154,0.257,6.363,0.348c2.209,0.094,4.495,0.127,6.821,0.165
			c2.325,0.034,4.698,0.038,7.062,0.027c2.384,0.009,4.74,0.007,7.069-0.028c2.326-0.042,4.612-0.072,6.821-0.167
			c2.209-0.09,4.341-0.21,6.363-0.349c2.018-0.162,3.93-0.311,5.689-0.5c0.882-0.083,1.722-0.187,2.525-0.279
			c0.804-0.084,1.565-0.175,2.278-0.27c1.429-0.188,2.676-0.352,3.702-0.488c2.055-0.288,3.229-0.453,3.229-0.453
			S287.39,268.417,286.862,268.565z"/>
		
			<linearGradient id="SVGID_00000116948450551649667580000018009231317127339648_" gradientUnits="userSpaceOnUse" x1="147.6552" y1="234.8487" x2="250" y2="234.8487">
			<stop  offset="0" style="stop-color:#FFFFFF"/>
			<stop  offset="1" style="stop-color:#ECEFF1"/>
		</linearGradient>
		<path style="opacity:0.19;fill:url(#SVGID_00000116948450551649667580000018009231317127339648_);" d="M157.535,219.609
			L157.535,219.609c-2.683,2.682-5.357,5.595-7.503,8.433c-1.099,1.454-1.865,3.127-2.277,4.902c-0.032,0.138-0.066,0.289-0.1,0.437
			C162.243,254.696,250,249.541,250,249.541c-15.934,0-37.912-2.479-56.773-5.707C170.374,239.924,154.687,234.478,157.535,219.609z
			"/>
		
			<linearGradient id="SVGID_00000071556304330632604790000011486351780701336511_" gradientUnits="userSpaceOnUse" x1="257.4769" y1="224.7352" x2="347.5515" y2="224.7352">
			<stop  offset="0" style="stop-color:#455A64"/>
			<stop  offset="1" style="stop-color:#263238"/>
		</linearGradient>
		<path style="opacity:0.5;fill:url(#SVGID_00000071556304330632604790000011486351780701336511_);" d="M257.477,240.506
			c0,0,72.461,4.476,90.075-15.448c-7.212-8.398-17.427-16.525-17.427-16.525C345.001,228.648,288.853,237.093,257.477,240.506z"/>
		
			<linearGradient id="SVGID_00000057132922751977496250000014406910798498398099_" gradientUnits="userSpaceOnUse" x1="106.876" y1="310.1733" x2="393.124" y2="310.1733">
			<stop  offset="0" style="stop-color:#008AFF"/>
			<stop  offset="1" style="stop-color:#8A4CFF"/>
		</linearGradient>
		<path style="fill:url(#SVGID_00000057132922751977496250000014406910798498398099_);" d="M250,306.968
			c56.826,0,107.893,7.754,143.124,20.081c-26.069-19.997-80.361-33.75-143.124-33.75s-117.055,13.753-143.124,33.75
			C142.107,314.721,193.174,306.968,250,306.968z"/>
		
			<linearGradient id="SVGID_00000016794276406770515720000001613674664192049846_" gradientUnits="userSpaceOnUse" x1="146.3552" y1="314.8282" x2="353.6448" y2="314.8282">
			<stop  offset="0" style="stop-color:#008AFF"/>
			<stop  offset="1" style="stop-color:#8A4CFF"/>
		</linearGradient>
		<path style="fill:url(#SVGID_00000016794276406770515720000001613674664192049846_);" d="M250,312.507
			c41.151,0,78.132,5.615,103.645,14.542c-18.878-14.481-58.194-24.441-103.645-24.441s-84.767,9.959-103.645,24.441
			C171.868,318.122,208.849,312.507,250,312.507z"/>
		<g>
			
				<linearGradient id="SVGID_00000160156831447994422100000010452779341270344115_" gradientUnits="userSpaceOnUse" x1="396.9542" y1="168.2031" x2="178.0687" y2="70.2137">
				<stop  offset="0" style="stop-color:#8A4CFF"/>
				<stop  offset="1" style="stop-color:#008AFF"/>
			</linearGradient>
			<circle style="fill:url(#SVGID_00000160156831447994422100000010452779341270344115_);" cx="282.907" cy="117.147" r="8.561"/>
			
				<linearGradient id="SVGID_00000040534422304946809280000004329932869037717672_" gradientUnits="userSpaceOnUse" x1="399.9602" y1="161.4882" x2="181.0748" y2="63.4988">
				<stop  offset="0" style="stop-color:#8A4CFF"/>
				<stop  offset="1" style="stop-color:#008AFF"/>
			</linearGradient>
			<circle style="fill:url(#SVGID_00000040534422304946809280000004329932869037717672_);" cx="268.314" cy="102.553" r="4.148"/>
			
				<linearGradient id="SVGID_00000142171719642515484000000011072160042585863084_" gradientUnits="userSpaceOnUse" x1="400.0594" y1="161.2666" x2="181.174" y2="63.2771">
				<stop  offset="0" style="stop-color:#8A4CFF"/>
				<stop  offset="1" style="stop-color:#008AFF"/>
			</linearGradient>
			<circle style="fill:url(#SVGID_00000142171719642515484000000011072160042585863084_);" cx="341.626" cy="135.108" r="4.148"/>
			
				<linearGradient id="SVGID_00000153662950909504314140000012287848119402411175_" gradientUnits="userSpaceOnUse" x1="366.3371" y1="236.5945" x2="147.4516" y2="138.6051">
				<stop  offset="0" style="stop-color:#8A4CFF"/>
				<stop  offset="1" style="stop-color:#008AFF"/>
			</linearGradient>
			<circle style="fill:url(#SVGID_00000153662950909504314140000012287848119402411175_);" cx="156.566" cy="142.685" r="5.656"/>
		</g>
		
			<linearGradient id="SVGID_00000059282280599292978600000010465104555375919254_" gradientUnits="userSpaceOnUse" x1="219.0927" y1="199.3817" x2="219.0927" y2="165.0538">
			<stop  offset="0" style="stop-color:#FFFFFF"/>
			<stop  offset="1" style="stop-color:#ECEFF1"/>
		</linearGradient>
		<path style="opacity:0.17;fill:url(#SVGID_00000059282280599292978600000010465104555375919254_);" d="M250,165.054L250,165.054
			L250,165.054c-33.054,0-57.929,1.363-62.699,10.904c-2.095,4.191-5.702,12.456-9.089,20.409
			c6.529,1.958,13.449,3.015,20.616,3.015c25.877,0,48.549-13.717,61.146-34.275C256.743,165.07,253.418,165.054,250,165.054z"/>
	</g>
</g>
<g id="TEXTS">
	<g>
		<g>
			<path style="fill:#35464E;" d="M141.109,339.683c2.948,2.482,4.456,6.72,4.51,12.485c-3.474,0.413-6.946,0.846-10.413,1.3
				c-0.018-2.31-0.55-4.067-1.594-5.233c-1.044-1.169-2.516-1.566-4.416-1.22c-2.195,0.401-3.802,1.476-4.826,3.171
				c-1.023,1.699-1.53,3.867-1.517,6.547c0.005,1.145,0.011,2.289,0.016,3.433c0.012,2.645,0.54,4.675,1.584,6.136
				c1.045,1.46,2.639,2.153,4.783,2.038c2.109-0.113,3.705-0.817,4.783-2.147c1.078-1.328,1.608-3.167,1.589-5.482
				c3.359-0.306,6.719-0.598,10.082-0.876c0.053,5.726-1.333,10.2-4.163,13.237c-2.831,3.051-6.86,4.478-12.083,4.471
				c-5.819-0.009-10.232-1.645-13.223-4.612c-2.993-2.987-4.478-7.231-4.478-13.039c0.001-5.805,1.478-10.458,4.42-14.224
				c2.943-3.742,7.27-6.503,13.02-7.875C134.184,336.605,138.16,337.193,141.109,339.683z"/>
			<path style="fill:#35464E;" d="M174.605,376.73c-0.501-2.194-1.002-4.378-1.503-6.552c-3.984,0.091-7.966,0.188-11.948,0.293
				c-0.458,2.111-0.916,4.211-1.374,6.299c-3.735,0.011-7.47,0.023-11.205,0.035c4.012-14.145,8.003-29.077,11.991-44.651
				c4.239-0.72,8.484-1.388,12.735-2.004c4.305,14.926,8.612,30.492,12.905,46.553C182.34,376.711,178.473,376.72,174.605,376.73z
				 M163.332,360.335c2.461-0.152,4.923-0.298,7.386-0.437c-1.245-5.413-2.49-10.761-3.734-16.041
				c-0.066,0.008-0.132,0.015-0.198,0.023C165.635,349.43,164.484,354.917,163.332,360.335z"/>
			<path style="fill:#35464E;" d="M220.892,349.632c-1.117,2.564-2.75,4.465-4.898,5.707c2.574,7.037,5.142,14.148,7.7,21.31
				c-4.099,0.004-8.198,0.008-12.297,0.013c-2.054-6.152-4.112-12.251-6.175-18.284c-1.358,0.043-2.717,0.088-4.075,0.135
				c0.045,6.055,0.089,12.109,0.134,18.164c-3.653,0.006-7.306,0.012-10.958,0.019c-0.14-16.228-0.28-32.455-0.419-48.683
				c6.986-0.788,13.983-1.436,20.989-1.945c2.462-0.179,4.573,0.384,6.328,1.692c1.755,1.306,3.078,3.151,3.972,5.518
				c0.893,2.368,1.345,4.974,1.357,7.807C222.562,344.217,222.008,347.069,220.892,349.632z M210.422,338.967
				c-0.604-0.85-1.337-1.246-2.201-1.194c-2.409,0.146-4.816,0.304-7.223,0.475c0.023,3.064,0.045,6.127,0.068,9.191
				c2.404-0.131,4.809-0.253,7.215-0.364c0.862-0.04,1.59-0.525,2.182-1.459c0.592-0.933,0.884-2.064,0.876-3.388
				C211.331,340.904,211.025,339.816,210.422,338.967z"/>
			<path style="fill:#35464E;" d="M254.538,376.638c-1.462-10.544-2.931-21.096-4.409-31.646c-0.066,0-0.133,0-0.199,0
				c-1.48,10.548-2.953,21.1-4.417,31.646c-4.017,0.001-8.033,0.002-12.05,0.004c-2.706-17.241-5.435-34.402-8.185-51.423
				c3.832-0.174,7.665-0.306,11.499-0.396c1.337,9.76,2.668,19.542,3.993,29.338c0.066,0,0.133-0.001,0.199-0.001
				c1.28-9.815,2.567-19.639,3.86-29.465c3.635-0.03,7.27-0.024,10.905,0.021c1.373,9.828,2.74,19.652,4.1,29.462
				c0.066,0.001,0.133,0.001,0.199,0.002c1.245-9.787,2.496-19.557,3.753-29.305c3.667,0.1,7.334,0.239,10.999,0.415
				c-2.753,16.99-5.486,34.128-8.197,51.353C262.572,376.641,258.555,376.639,254.538,376.638z"/>
			<path style="fill:#35464E;" d="M301.349,376.683c-0.461-2.323-0.922-4.652-1.384-6.988c-3.986-0.06-7.973-0.113-11.96-0.16
				c-0.494,2.37-0.988,4.746-1.481,7.126c-3.736-0.005-7.471-0.008-11.207-0.012c4.221-17.104,8.476-34.004,12.755-50.552
				c4.276,0.314,8.55,0.68,12.819,1.097c4.042,16.904,8.058,33.456,12.062,49.51C309.084,376.697,305.216,376.689,301.349,376.683z
				 M290.361,358.286c2.468,0.073,4.936,0.152,7.404,0.238c-1.148-5.948-2.299-11.933-3.453-17.951
				c-0.066-0.004-0.133-0.008-0.199-0.012C292.859,346.432,291.609,352.342,290.361,358.286z"/>
			<path style="fill:#35464E;" d="M342.568,335.599c2.777,2.749,4.176,6.275,4.2,10.658c-0.003,0.25-0.005,0.5-0.007,0.751
				c-3.411-0.445-6.825-0.867-10.242-1.265c0.001-0.087,0.002-0.174,0.003-0.261c0.013-1.303-0.339-2.432-1.055-3.398
				c-0.718-0.965-1.82-1.551-3.306-1.74c-1.455-0.185-2.573-0.033-3.355,0.453c-0.783,0.488-1.178,1.161-1.187,2.012
				c-0.012,1.21,0.508,2.162,1.559,2.851c1.052,0.69,2.747,1.464,5.087,2.321c2.734,1.032,4.978,2.037,6.736,3.011
				c1.757,0.975,3.286,2.414,4.588,4.297c1.301,1.886,1.955,4.304,1.959,7.297c-0.05,5.064-1.449,8.759-4.2,11.217
				c-2.751,2.45-6.408,3.737-10.97,3.74c-5.322,0.003-9.45-1.202-12.384-3.708c-2.935-2.499-4.374-6.968-4.315-13.322
				c3.457,0.154,6.914,0.32,10.368,0.497c-0.023,2.341,0.408,3.924,1.292,4.74c0.885,0.819,2.268,1.253,4.153,1.32
				c1.387,0.05,2.538-0.106,3.451-0.463c0.913-0.358,1.375-1.142,1.387-2.358c0.011-1.086-0.484-1.925-1.486-2.53
				c-1.003-0.603-2.64-1.279-4.914-2.037c-2.768-0.965-5.058-1.947-6.868-2.944c-1.81-0.997-3.384-2.571-4.721-4.737
				c-1.337-2.164-1.989-5.043-1.956-8.608c0.049-5.23,1.533-8.943,4.455-11.016c2.92-2.077,6.598-2.738,11.024-2.026
				C336.225,331.055,339.789,332.858,342.568,335.599z"/>
			<path style="fill:#35464E;" d="M375.864,376.902c0.021-4.659,0.043-9.318,0.064-13.976c-3.995-0.381-7.993-0.743-11.994-1.088
				c-0.039,5.005-0.077,10.011-0.116,15.016c-3.652-0.014-7.304-0.027-10.956-0.039c0.13-13.946,0.261-27.893,0.391-41.839
				c3.63,0.727,7.253,1.491,10.871,2.295c-0.037,4.814-0.074,9.627-0.112,14.441c3.992,0.567,7.978,1.163,11.959,1.789
				c0.021-4.48,0.041-8.96,0.062-13.441c3.602,0.888,7.198,1.814,10.785,2.779c0,11.37,0,22.741,0,34.111
				C383.167,376.933,379.516,376.917,375.864,376.902z"/>
		</g>
	</g>
</g>
</svg>
